<svg width="40" height="40" viewBox="0 0 40 40" fill="none" xmlns="http://www.w3.org/2000/svg">
<path fill-rule="evenodd" clip-rule="evenodd" d="M6.38078 3.0403C7.26488 2.16077 8.46398 1.66666 9.71429 1.66666H21.7143C22.0553 1.66666 22.3823 1.80142 22.6234 2.04129L34.6234 13.9793C34.8645 14.2191 35 14.5445 35 14.8837V33.6434C35 34.8872 34.5033 36.0801 33.6192 36.9597C32.7351 37.8392 31.536 38.3333 30.2857 38.3333H9.71429C8.46398 38.3333 7.26488 37.8392 6.38078 36.9597C5.49668 36.0801 5 34.8872 5 33.6434V6.35658C5 5.11273 5.49668 3.91983 6.38078 3.0403ZM9.71429 4.2248C9.14596 4.2248 8.60092 4.44939 8.19906 4.84918C7.79719 5.24897 7.57143 5.7912 7.57143 6.35658V33.6434C7.57143 34.2088 7.79719 34.751 8.19906 35.1508C8.60092 35.5506 9.14597 35.7752 9.71429 35.7752H30.2857C30.854 35.7752 31.3991 35.5506 31.8009 35.1508C32.2028 34.751 32.4286 34.2088 32.4286 33.6434V15.4135L21.1817 4.2248H9.71429Z" fill="black"/>
<path fill-rule="evenodd" clip-rule="evenodd" d="M21.5548 12.4881C22.1872 12.2211 22.8659 12.0833 23.5519 12.0833C24.2379 12.0833 24.9166 12.2211 25.549 12.4881C26.1811 12.7551 26.754 13.1457 27.2354 13.6364C27.717 14.1271 28.0979 14.7083 28.3573 15.3464C28.6168 15.9845 28.75 16.6676 28.75 17.3569C28.75 18.0463 28.6168 18.7294 28.3573 19.3674C28.0979 20.0055 27.717 20.5868 27.2354 21.0775L20.892 27.5421C20.657 27.7817 20.3354 27.9167 19.9998 27.9167C19.6642 27.9167 19.3427 27.7817 19.1076 27.5421L12.764 21.0772C11.792 20.0866 11.25 18.7479 11.25 17.3569C11.25 15.9659 11.792 14.6273 12.764 13.6366C13.7369 12.6452 15.0615 12.0837 16.4477 12.0837C17.7724 12.0837 19.0408 12.5964 19.9998 13.5072C20.4528 13.0768 20.9792 12.7312 21.5548 12.4881ZM26.3437 14.5118L25.4509 15.3873C25.1994 15.1309 24.902 14.9287 24.5764 14.7912C24.2509 14.6538 23.9028 14.5833 23.5519 14.5833C23.201 14.5833 22.8529 14.6538 22.5274 14.7912C22.2018 14.9287 21.9044 15.1309 21.6529 15.3873L20.892 16.1628C20.657 16.4023 20.3354 16.5373 19.9998 16.5373C19.6642 16.5373 19.3427 16.4023 19.1076 16.1628L18.3469 15.3876C17.8391 14.87 17.1555 14.5837 16.4477 14.5837C15.74 14.5837 15.0563 14.87 14.5485 15.3876C14.0399 15.9059 13.75 16.6139 13.75 17.3569C13.75 18.1 14.0399 18.808 14.5485 19.3263L19.9998 24.8819L25.4511 19.3263L25.4513 19.3261C25.7031 19.0697 25.904 18.764 26.0414 18.4258C26.1789 18.0876 26.25 17.7244 26.25 17.3569C26.25 16.9895 26.1789 16.6262 26.0414 16.288C25.904 15.9499 25.7031 15.6442 25.4513 15.3878L26.3437 14.5118Z" fill="black"/>
</svg>
