<svg width="40" height="40" viewBox="0 0 40 40" fill="none" xmlns="http://www.w3.org/2000/svg">
<path fill-rule="evenodd" clip-rule="evenodd" d="M23.6426 8.3763L21.7828 10.2663C21.3128 10.7438 20.6709 11.0128 20.0008 11.0128C19.3308 11.0128 18.6888 10.7438 18.2189 10.2663L16.3595 8.37671C15.0154 7.01081 13.2011 6.25095 11.3179 6.25095C9.43474 6.25095 7.6204 7.01081 6.27631 8.37671C4.93088 9.74399 4.16797 11.6068 4.16797 13.5575C4.16797 15.5082 4.93088 17.3711 6.27631 18.7384L20.0008 32.6857L33.7254 18.7384L33.7258 18.7379C34.3918 18.0614 34.9222 17.256 35.2848 16.3666C35.6475 15.4772 35.8346 14.5226 35.8346 13.5575C35.8346 12.5925 35.6475 11.6378 35.2848 10.7484C34.9222 9.85909 34.3918 9.05366 33.7258 8.37713L35.5072 6.62329L33.7249 8.3763C33.0593 7.69953 32.2712 7.16486 31.4066 6.80082C30.5422 6.43681 29.617 6.25 28.6838 6.25C27.7505 6.25 26.8253 6.43681 25.9609 6.80082C25.0963 7.16485 24.3082 7.69953 23.6426 8.3763ZM20.0008 36.25L4.49437 20.4918C2.68466 18.6527 1.66797 16.1584 1.66797 13.5575C1.66797 10.9567 2.68466 8.46233 4.49437 6.62324C6.30409 4.78414 8.75859 3.75095 11.3179 3.75095C13.8772 3.75095 16.3317 4.78414 18.1415 6.62324L20.0008 8.51279L21.8602 6.62324C22.7561 5.71234 23.8199 4.98975 24.9907 4.49675C26.1615 4.00375 27.4164 3.75 28.6838 3.75C29.9511 3.75 31.206 4.00375 32.3768 4.49675C33.5476 4.98975 34.6113 5.71239 35.5072 6.62329C36.4036 7.53376 37.1147 8.61473 37.5998 9.80454C38.0849 10.9943 38.3346 12.2696 38.3346 13.5575C38.3346 14.8454 38.0849 16.1207 37.5998 17.3105C37.1147 18.5003 36.4036 19.5814 35.5073 20.4918L20.0008 36.25Z" fill="black"/>
</svg>
