<svg width="64" height="64" viewBox="0 0 64 64" fill="none" xmlns="http://www.w3.org/2000/svg">
<path d="M52.2781 32.2797C50.8981 32.2797 49.7781 32.2797 48.5781 32.2797C48.5781 30.7597 48.5781 29.2997 48.5781 27.7397C49.6981 27.7397 50.8381 27.7397 52.1181 27.7397C52.1181 25.8397 52.1181 24.0597 52.1181 22.2197C54.0581 22.2197 55.8781 22.2197 57.8181 22.2197C57.8181 23.9597 57.8181 25.7397 57.8181 27.6597C59.2781 27.6597 60.6181 27.6597 62.0181 27.6597C62.0181 29.2397 62.0181 30.6797 62.0181 32.2397C60.6781 32.2397 59.3581 32.2397 57.8781 32.2397C57.8781 32.9197 57.8781 33.4997 57.8781 34.0797C57.8781 35.6397 57.8781 37.2197 57.8981 38.7797C57.9381 41.3397 58.6781 42.0397 61.2381 41.9197C61.4781 41.8997 61.6981 41.8997 62.0781 41.8797C62.0781 42.6597 62.0781 43.3997 62.0781 44.1597C62.0781 44.8797 62.0781 45.6197 62.0781 46.4197C59.6981 46.8397 57.3781 47.0197 55.1581 46.0197C53.3381 45.2197 52.2781 43.7997 52.2581 41.7397C52.2781 38.6197 52.2781 35.5397 52.2781 32.2797Z" fill="#E9E0D3"/>
<path d="M19.16 17.3999C21 17.3999 22.82 17.3999 24.7 17.3999C24.7 26.9999 24.7 36.5599 24.7 46.1799C22.86 46.1799 21.06 46.1799 19.16 46.1799C19.16 36.5999 19.16 27.0199 19.16 17.3999Z" fill="#E9E0D3"/>
<path d="M10.48 39.2999C7.59999 39.2999 4.71999 39.2999 1.79999 39.2999C1.79999 37.7399 1.79999 36.2999 1.79999 34.7199C4.69999 34.7199 7.57999 34.7199 10.44 34.7199C10.48 34.6399 10.54 34.5599 10.58 34.4599C8.59999 32.3199 6.61999 30.1799 4.39999 27.7799C6.47999 27.7799 8.21999 27.7599 9.97999 27.7999C10.18 27.7999 10.42 27.9599 10.56 28.1199C13.28 31.0399 16 33.9599 18.8 36.9599C18.52 37.2799 18.32 37.5599 18.08 37.8199C15.68 40.3999 13.28 42.9999 10.88 45.5799C10.64 45.8399 10.3 46.1399 9.99999 46.1399C8.23999 46.1999 6.49999 46.1599 4.43999 46.1599C6.61999 43.7999 8.59999 41.6799 10.58 39.5399C10.54 39.4599 10.5 39.3799 10.48 39.2999Z" fill="#E9E0D3"/>
<path d="M39.4587 46.1598C37.3787 46.1598 35.5987 46.1798 33.8187 46.1398C33.6128 46.1398 33.4726 46.1398 33.3987 46.0997C33.3987 45.9997 33.312 45.9731 33.1387 45.7998C30.4787 42.9598 27.8387 40.0798 25.1987 37.2198C25.0588 37.0799 24.9916 37.0233 24.9817 36.9785C24.9761 36.9529 24.9894 36.9311 25.0187 36.8998C26.4587 35.3598 27.8987 33.7998 29.3387 32.2398C30.5587 30.9198 31.7787 29.5998 33.0187 28.2998C33.1838 28.1346 33.3941 27.8943 33.5987 27.7997C33.6987 27.7997 33.7339 27.7998 33.7987 27.7998C35.5787 27.7598 37.3987 27.7598 39.1587 27.7598C39.1987 27.7598 39.4932 27.7598 39.4932 27.7598C39.4932 27.7598 39.2987 27.9798 39.2587 28.0198C36.5187 30.9798 33.7787 33.9398 30.9387 36.9998C33.7587 39.9998 36.4987 42.9598 39.4587 46.1598Z" fill="#E9E0D3"/>
<path d="M41.1211 27.7402C42.9811 27.7402 44.7811 27.7402 46.6411 27.7402C46.6411 33.8802 46.6411 40.0002 46.6411 46.1802C44.8411 46.1802 43.0211 46.1802 41.1211 46.1802C41.1211 40.0602 41.1211 33.9402 41.1211 27.7402Z" fill="#E9E0D3"/>
<path d="M40.6213 21.7997C40.6413 19.9197 42.0613 18.4997 43.9013 18.5197C45.7013 18.5397 47.1813 20.0597 47.1413 21.8797C47.1013 23.6397 45.6213 25.0997 43.8613 25.1197C42.0413 25.1197 40.6013 23.6597 40.6213 21.7997Z" fill="#E9E0D3"/>
</svg>
