<svg width="40" height="40" viewBox="0 0 40 40" fill="none" xmlns="http://www.w3.org/2000/svg">
<path d="M15.2233 15.3771C15.2233 16.4521 15.5832 17.4373 16.1727 18.2433C14.2417 18.3279 12.6927 19.9197 12.6927 21.8812V26.8419C12.6927 27.398 13.1409 27.8494 13.6953 27.8494H26.4283C26.9827 27.8494 27.4309 27.398 27.4309 26.8419V21.8812C27.4309 19.9207 25.8839 18.3289 23.9529 18.2433C24.5424 17.4373 24.9003 16.4531 24.9003 15.3771C24.9003 12.6963 22.7307 10.5151 20.0618 10.5151C17.3949 10.5141 15.2233 12.6963 15.2233 15.3771ZM25.4257 21.8802V25.8334H14.6979V21.8802C14.6979 20.9775 15.4298 20.2421 16.3291 20.2421H23.7934C24.6928 20.2421 25.4257 20.9775 25.4257 21.8802ZM20.0618 12.529C21.6248 12.529 22.8951 13.8065 22.8951 15.3761C22.8951 16.9477 21.6238 18.2262 20.0618 18.2262C18.4997 18.2262 17.2284 16.9467 17.2284 15.3761C17.2284 13.8065 18.4987 12.529 20.0618 12.529Z" fill="black"/>
<path fill-rule="evenodd" clip-rule="evenodd" d="M20.0618 10.3261C17.2909 10.3251 15.0352 12.592 15.0352 15.3771ZM20.0617 10.7041C17.4988 10.7032 15.4113 12.8006 15.4113 15.3771C15.4113 16.4086 15.7565 17.3552 16.3243 18.1314L16.533 18.4167L16.1809 18.4321C14.3489 18.5124 12.8808 20.0225 12.8808 21.8812V26.8419C12.8808 27.2938 13.2449 27.6603 13.6953 27.6603H26.4283C26.8787 27.6603 27.2428 27.2938 27.2428 26.8419V21.8812C27.2428 20.0234 25.7766 18.5134 23.9446 18.4321L23.5927 18.4165L23.8013 18.1314C24.3689 17.3554 24.7122 16.4098 24.7122 15.3771C24.7122 12.8006 22.6267 10.7041 20.0617 10.7041ZM20.0618 10.3261C22.8346 10.3262 25.0884 12.5919 25.0884 15.3771C25.0884 16.3777 24.7906 17.3014 24.2906 18.0833C26.1644 18.3288 27.619 19.9309 27.619 21.8812V26.8419C27.619 27.5023 27.0867 28.0384 26.4283 28.0384H13.6953C13.0369 28.0384 12.5046 27.5023 12.5046 26.8419V21.8812C12.5046 19.9299 13.9609 18.3279 15.8348 18.0831C15.3346 17.3013 15.0352 16.3769 15.0352 15.3771M20.0618 12.718C18.6027 12.718 17.4165 13.9108 17.4165 15.3761C17.4165 16.8425 18.6038 18.0372 20.0618 18.0372C21.5198 18.0372 22.707 16.8435 22.707 15.3761C22.707 13.9108 21.5209 12.718 20.0618 12.718ZM17.0404 15.3761C17.0404 13.7021 18.3948 12.34 20.0618 12.34C21.7288 12.34 23.0832 13.7021 23.0832 15.3761C23.0832 17.0519 21.7279 18.4152 20.0618 18.4152C18.3956 18.4152 17.0404 17.0509 17.0404 15.3761ZM16.3291 20.4311C15.5336 20.4311 14.886 21.082 14.886 21.8802V25.6444H25.2376V21.8802C25.2376 21.0821 24.5891 20.4311 23.7934 20.4311H16.3291ZM14.5098 21.8802C14.5098 20.8731 15.326 20.0531 16.3291 20.0531H23.7934C24.7964 20.0531 25.6138 20.8729 25.6138 21.8802V26.0224H14.5098V21.8802Z" fill="black"/>
<path d="M33.2607 7.24477C25.2579 5.98747 20.7673 2.14102 20.7222 2.10173C20.3442 1.7733 19.7808 1.7733 19.4048 2.10375C19.3617 2.14203 14.9111 5.98143 6.86832 7.24578C6.38106 7.32134 6.02012 7.74245 6.02012 8.24013V24.5639C6.02012 29.1266 12.525 36.4236 19.8389 38.1191C19.9131 38.1363 19.9873 38.1443 20.0645 38.1443C20.1387 38.1443 20.2149 38.1353 20.2901 38.1191C27.602 36.4236 34.1089 29.1266 34.1089 24.5639V8.24013C34.1089 7.74245 33.7479 7.32134 33.2607 7.24477ZM32.1037 24.5639C32.1037 27.9016 26.6165 34.4641 20.0645 36.1012C13.5125 34.4641 8.02532 27.9006 8.02532 24.5639V9.09042C14.4269 7.91976 18.5395 5.27319 20.0645 4.14182C21.5884 5.27319 25.7021 7.91976 32.1037 9.09042V24.5639Z" fill="black"/>
<path fill-rule="evenodd" clip-rule="evenodd" d="M19.2809 1.96148C19.728 1.5686 20.3967 1.56907 20.8452 1.95877L20.8454 1.9589C20.8453 1.95888 20.8466 1.95992 20.8492 1.96221L20.8602 1.97147C20.8697 1.97944 20.8834 1.99094 20.9015 2.00578C20.9377 2.03546 20.9909 2.07843 21.061 2.13316C21.2013 2.24261 21.409 2.39901 21.6823 2.5899C22.229 2.97169 23.038 3.49132 24.0948 4.04918C26.2084 5.16492 29.3121 6.43311 33.2897 7.05804C33.8682 7.14893 34.2969 7.64896 34.2969 8.24013V24.5639C34.2969 25.7468 33.8763 27.0898 33.1435 28.4579C32.4096 29.8282 31.3565 31.2351 30.0758 32.549C27.5161 35.175 24.031 37.4456 20.3324 38.3033L20.3308 38.3037L20.3293 38.304C20.2431 38.3225 20.1537 38.3333 20.0645 38.3333C19.9739 38.3333 19.8855 38.3238 19.7968 38.3033C16.0972 37.4457 12.6119 35.175 10.0524 32.549C8.77187 31.2351 7.71891 29.8282 6.98515 28.4579C6.25251 27.0898 5.83203 25.7468 5.83203 24.5639V8.24013C5.83203 7.6491 6.26072 7.14885 6.83944 7.05902C10.8371 6.43054 13.9407 5.16234 16.0489 4.04772C17.1029 3.49041 17.9079 2.97159 18.4511 2.59056C18.7227 2.40005 18.9288 2.24402 19.0678 2.13489C19.1373 2.08033 19.19 2.0375 19.2257 2.00796C19.2436 1.99319 19.2572 1.98176 19.2665 1.97387C19.2747 1.96692 19.279 1.96316 19.28 1.9623L19.2802 1.96212L19.2809 1.96148ZM19.5286 2.24601C19.4399 2.32394 14.9604 6.16499 6.89739 7.43251L6.89701 7.43257C6.5013 7.49393 6.20822 7.83587 6.20822 8.24013V24.5639C6.20822 25.6624 6.60085 26.9425 7.31642 28.2788C8.03088 29.613 9.06125 30.9918 10.3212 32.2845C12.8426 34.8715 16.2668 37.097 19.881 37.9349C19.9407 37.9487 20.0007 37.9553 20.0645 37.9553C20.1232 37.9553 20.1857 37.9482 20.2494 37.9346C23.8621 37.0964 27.2857 34.8711 29.8071 32.2845C31.0671 30.9918 32.0977 29.613 32.8123 28.2788C33.528 26.9425 33.9208 25.6623 33.9208 24.5639V8.24013C33.9208 7.83594 33.6277 7.49374 33.2316 7.43151C25.189 6.16794 20.6676 2.30419 20.5992 2.2447C20.2917 1.97753 19.8335 1.978 19.5286 2.24601ZM20.0645 3.90686L20.1763 3.98981C21.6836 5.10884 25.771 7.74026 32.1373 8.90447L32.2918 8.93271V24.5639C32.2918 25.4445 31.9321 26.5136 31.3081 27.6366C30.6821 28.7634 29.7809 29.9609 28.6759 31.1021C26.4674 33.3828 23.4282 35.4555 20.1099 36.2846L20.0645 36.296L20.0191 36.2846C16.7008 35.4555 13.6616 33.3825 11.4531 31.1017C10.3481 29.9605 9.44689 28.763 8.82084 27.6362C8.19691 26.5132 7.83722 25.4442 7.83722 24.5639V8.93271L7.99164 8.90447C14.3579 7.74027 18.4444 5.10885 19.9528 3.98977L20.0645 3.90686ZM8.21341 9.24777V24.5639C8.21341 25.3519 8.53962 26.3546 9.1493 27.4519C9.75684 28.5454 10.6369 29.7167 11.7227 30.8381C13.8857 33.072 16.8484 35.0908 20.0645 35.9064C23.2806 35.0908 26.2433 33.0722 28.4063 30.8385C29.4921 29.7171 30.3721 28.5458 30.9797 27.4523C31.5894 26.355 31.9156 25.3521 31.9156 24.5639V9.24777C25.7158 8.0846 21.6738 5.55085 20.0645 4.37608C18.4543 5.55079 14.4132 8.08459 8.21341 9.24777Z" fill="black"/>
</svg>
