<svg width="40" height="40" viewBox="0 0 40 40" fill="none" xmlns="http://www.w3.org/2000/svg">
<path d="M27.3517 32.5191H5.30908C4.34271 32.5179 3.41625 32.1335 2.73292 31.4502C2.0496 30.7669 1.6652 29.8404 1.66406 28.874V11.145C1.6652 10.1786 2.0496 9.25219 2.73292 8.56886C3.41625 7.88554 4.34271 7.50114 5.30908 7.5H27.3517C28.3181 7.50114 29.2446 7.88554 29.9279 8.56886C30.6112 9.25219 30.9956 10.1786 30.9968 11.145V28.874C30.9956 29.8404 30.6112 30.7669 29.9279 31.4502C29.2446 32.1335 28.3181 32.5179 27.3517 32.5191ZM5.30908 10.0882C5.02879 10.0882 4.75998 10.1995 4.56178 10.3977C4.36359 10.5959 4.25224 10.8647 4.25224 11.145V28.874C4.25224 29.1543 4.36359 29.4231 4.56178 29.6213C4.75998 29.8195 5.02879 29.9309 5.30908 29.9309H27.3517C27.4905 29.9309 27.628 29.9035 27.7562 29.8504C27.8844 29.7973 28.0009 29.7195 28.099 29.6213C28.1972 29.5232 28.275 29.4067 28.3281 29.2785C28.3812 29.1503 28.4086 29.0128 28.4086 28.874V11.145C28.4086 11.0062 28.3812 10.8688 28.3281 10.7406C28.275 10.6124 28.1972 10.4959 28.099 10.3977C28.0009 10.2996 27.8844 10.2217 27.7562 10.1686C27.628 10.1155 27.4905 10.0882 27.3517 10.0882H5.30908Z" fill="black"/>
<path d="M37.0366 32.0877C36.8598 32.0882 36.6848 32.0525 36.5223 31.9828C36.3598 31.913 36.2134 31.8107 36.092 31.6822L29.1901 24.349C29.0702 24.2259 28.9761 24.0802 28.9131 23.9203C28.8501 23.7604 28.8196 23.5896 28.8234 23.4178C28.8272 23.246 28.8651 23.0766 28.935 22.9196C29.0049 22.7627 29.1054 22.6212 29.2306 22.5034C29.3558 22.3857 29.5031 22.2941 29.6641 22.2339C29.8251 22.1738 29.9964 22.1463 30.1681 22.153C30.3399 22.1598 30.5085 22.2007 30.6642 22.2733C30.82 22.346 30.9597 22.4489 31.0752 22.5761L35.7426 27.5325V12.7799L31.0493 17.4731C30.804 17.7017 30.4795 17.8261 30.1443 17.8202C29.809 17.8143 29.4892 17.6785 29.2521 17.4414C29.015 17.2043 28.8791 16.8844 28.8732 16.5492C28.8673 16.2139 28.9918 15.8894 29.2203 15.6441L36.1222 8.74232C36.3031 8.56157 36.5336 8.4385 36.7845 8.38866C37.0354 8.33882 37.2954 8.36445 37.5317 8.4623C37.768 8.56015 37.9701 8.72585 38.1123 8.93845C38.2545 9.15105 38.3305 9.40103 38.3307 9.65681V30.7936C38.3307 31.1368 38.1944 31.466 37.9517 31.7087C37.709 31.9514 37.3799 32.0877 37.0366 32.0877Z" fill="black"/>
</svg>
