<svg width="40" height="40" viewBox="0 0 40 40" fill="none" xmlns="http://www.w3.org/2000/svg">
<path d="M19.9557 4.16666C18.9508 4.16666 17.8922 4.31758 17.031 5.0133C16.1697 5.70902 15.7005 6.88468 15.7005 8.3449C15.7005 9.80512 16.1093 11.1497 16.8331 12.1823C17.5568 13.2148 18.6654 13.9635 19.9557 13.9635C21.246 13.9635 22.3547 13.2148 23.0784 12.1823C23.8022 11.1497 24.2109 9.80512 24.2109 8.3449C24.2109 6.88467 23.7418 5.70902 22.8805 5.0133C22.0192 4.31758 20.9606 4.16666 19.9557 4.16666ZM19.9557 6.27777C20.7176 6.27777 21.2535 6.42308 21.5501 6.66261C21.8466 6.90213 22.0998 7.28453 22.0998 8.3449C22.0998 9.40527 21.7862 10.3535 21.3522 10.9728C20.9181 11.5921 20.4322 11.8524 19.9557 11.8524C19.4793 11.8524 18.9934 11.5921 18.5593 10.9728C18.1253 10.3535 17.8116 9.40527 17.8116 8.3449C17.8116 7.28452 18.0649 6.90213 18.3614 6.66261C18.6579 6.42309 19.1939 6.27777 19.9557 6.27777ZM16.7891 14.4473C16.6594 14.457 16.5327 14.4906 16.4152 14.5463C13.0877 16.0594 12.008 18.8157 11.0935 20.8796C10.6362 21.9116 10.2045 22.7758 9.5981 23.3976C8.99166 24.0193 8.22002 24.4658 6.80528 24.651C6.66738 24.6684 6.53425 24.7127 6.41348 24.7815C6.29271 24.8502 6.18667 24.9421 6.10142 25.0519C6.01616 25.1616 5.95336 25.2871 5.9166 25.4211C5.87984 25.5552 5.86984 25.6951 5.88716 25.833C5.90449 25.9709 5.94881 26.1041 6.01759 26.2248C6.08637 26.3456 6.17826 26.4516 6.28802 26.5369C6.39778 26.6221 6.52325 26.6849 6.65728 26.7217C6.79131 26.7585 6.93127 26.7685 7.06917 26.7511C8.85685 26.5171 10.1834 25.8152 11.1045 24.8709C12.0255 23.9266 12.5534 22.8098 13.0287 21.7373C13.9792 19.5922 14.6469 17.6696 17.2839 16.4705C17.5137 16.3721 17.7011 16.1953 17.8128 15.9717C17.9245 15.7481 17.9532 15.492 17.8938 15.2492C17.8345 15.0064 17.6908 14.7925 17.4885 14.6457C17.2862 14.4988 17.0383 14.4285 16.7891 14.4473ZM22.9795 14.4473C22.7426 14.4621 22.5176 14.5563 22.3409 14.7146C22.1641 14.873 22.0459 15.0863 22.0052 15.3201C21.9645 15.5539 22.0038 15.7946 22.1168 16.0033C22.2297 16.212 22.4097 16.3766 22.6276 16.4705C25.2646 17.6696 25.9323 19.5922 26.8828 21.7373C27.3581 22.8098 27.8859 23.9266 28.807 24.8709C29.7281 25.8152 31.0546 26.5171 32.8423 26.7511C32.9802 26.7685 33.1202 26.7585 33.2542 26.7217C33.3882 26.6849 33.5137 26.6221 33.6235 26.5369C33.7332 26.4516 33.8251 26.3456 33.8939 26.2248C33.9627 26.1041 34.007 25.9709 34.0243 25.833C34.0416 25.6951 34.0316 25.5552 33.9949 25.4211C33.9581 25.2871 33.8953 25.1616 33.8101 25.0519C33.7248 24.9421 33.6188 24.8502 33.498 24.7815C33.3772 24.7127 33.2441 24.6684 33.1062 24.651C31.6914 24.4658 30.9198 24.0193 30.3134 23.3976C29.7069 22.7758 29.2753 21.9116 28.818 20.8796C27.9035 18.8157 26.8238 16.0594 23.4962 14.5463C23.3351 14.4702 23.1573 14.4362 22.9795 14.4473ZM15.7775 22.375C15.6387 22.3874 15.5037 22.4272 15.3803 22.4921C15.2569 22.5569 15.1476 22.6456 15.0586 22.7529C14.9697 22.8603 14.9029 22.9841 14.8621 23.1174C14.8213 23.2507 14.8073 23.3908 14.8209 23.5295C14.8893 24.3843 14.9579 25.3732 14.8429 26.1904C14.7372 26.9411 14.4958 27.432 14.0732 27.7627C12.6053 28.0267 10.9517 28.0113 9.1253 29.0382C8.13872 29.5929 7.45319 30.2944 7.14613 31.1383C6.83907 31.9822 6.97876 32.8982 7.38803 33.6013C8.20658 35.0074 9.88148 35.8333 11.7312 35.8333C13.5068 35.8333 15.5196 34.9572 17.5587 34.151C17.6061 34.1579 17.6538 34.1616 17.7017 34.162C19.153 34.0929 21.0114 34.4752 22.8585 34.9097C24.7056 35.3442 26.5349 35.8333 28.1803 35.8333C30.03 35.8333 31.7049 35.0074 32.5234 33.6013C32.9327 32.8982 33.0724 31.9822 32.7653 31.1383C32.4583 30.2944 31.7728 29.5929 30.7862 29.0382C28.9598 28.0113 27.3062 28.0267 25.8383 27.7627C25.4157 27.432 25.1743 26.9411 25.0686 26.1904C24.9536 25.3732 25.0221 24.3843 25.0906 23.5295C25.1014 23.3909 25.0848 23.2515 25.0418 23.1193C24.9987 22.9871 24.9301 22.8646 24.8397 22.759C24.7494 22.6533 24.6391 22.5664 24.5152 22.5034C24.3912 22.4403 24.2561 22.4023 24.1175 22.3915C23.9789 22.3807 23.8395 22.3972 23.7073 22.4403C23.5751 22.4833 23.4526 22.552 23.3469 22.6423C23.2413 22.7327 23.1544 22.843 23.0914 22.9669C23.0283 23.0908 22.9903 23.226 22.9795 23.3646C22.9113 24.2153 22.8181 25.3409 22.9795 26.4873C23.1408 27.6337 23.6153 28.8985 24.7827 29.6539C24.8904 29.7224 25.0096 29.7709 25.1346 29.7969C26.989 30.1846 28.37 30.0971 29.7526 30.8744C30.44 31.2609 30.7003 31.628 30.7862 31.864C30.872 32.0999 30.8532 32.2685 30.6982 32.5347C30.3883 33.0671 29.3445 33.7222 28.1803 33.7222C26.9884 33.7222 25.2134 33.2938 23.3423 32.8536C23.0219 32.7782 22.6897 32.718 22.3637 32.6447C22.4579 32.6341 22.635 32.5691 22.7156 32.5677C22.8542 32.5648 22.9909 32.5347 23.1179 32.479C23.2449 32.4233 23.3596 32.3431 23.4556 32.243C23.5516 32.143 23.627 32.025 23.6773 31.8958C23.7277 31.7666 23.7522 31.6288 23.7493 31.4901C23.7464 31.3515 23.7162 31.2148 23.6605 31.0878C23.6048 30.9609 23.5246 30.8461 23.4245 30.7501C23.3244 30.6542 23.2064 30.5788 23.0773 30.5285C22.9481 30.4781 22.8102 30.4537 22.6716 30.4566C20.8876 30.4868 18.8591 31.374 16.8111 32.1829C14.7631 32.9918 12.6931 33.7222 11.7312 33.7222C10.567 33.7222 9.5232 33.0671 9.21326 32.5347C9.05829 32.2685 9.03944 32.0999 9.1253 31.864C9.21116 31.628 9.47151 31.2609 10.1589 30.8744C11.5414 30.0971 12.9225 30.1846 14.7769 29.7969C14.9019 29.7709 15.0211 29.7224 15.1288 29.6539C16.2962 28.8985 16.7706 27.6337 16.932 26.4873C17.0934 25.3409 17.0001 24.2153 16.932 23.3646C16.9238 23.2229 16.887 23.0843 16.824 22.9571C16.761 22.8299 16.6729 22.7167 16.5651 22.6243C16.4574 22.5319 16.3321 22.4622 16.1967 22.4194C16.0614 22.3766 15.9188 22.3615 15.7775 22.375Z" fill="black"/>
<path fill-rule="evenodd" clip-rule="evenodd" d="M16.9014 4.85126C17.8184 4.11049 18.936 3.95834 19.957 3.95834C20.9781 3.95834 22.0957 4.11049 23.0127 4.85126C23.9376 5.59837 24.4206 6.84338 24.4206 8.34492C24.4206 9.84298 24.0013 11.2304 23.2503 12.3019C22.4988 13.374 21.3327 14.1719 19.957 14.1719C18.5813 14.1719 17.4153 13.374 16.6638 12.3019C15.9128 11.2304 15.4935 9.84298 15.4935 8.34492C15.4935 6.84339 15.9765 5.59837 16.9014 4.85126ZM19.957 4.37501C18.9683 4.37501 17.9687 4.52471 17.1632 5.17538C16.3655 5.81971 15.9102 6.92601 15.9102 8.34492C15.9102 9.76731 16.3085 11.0691 17.005 12.0627C17.7009 13.0557 18.7521 13.7552 19.957 13.7552C21.162 13.7552 22.2131 13.0557 22.9091 12.0627C23.6056 11.0691 24.0039 9.76731 24.0039 8.34492C24.0039 6.926 23.5485 5.81971 22.7509 5.17538C21.9454 4.52472 20.9457 4.37501 19.957 4.37501ZM19.957 6.48612C19.2108 6.48612 18.7341 6.63042 18.4936 6.82469C18.3693 6.92512 18.2561 7.05211 18.1708 7.27147C18.0831 7.49686 18.0213 7.82934 18.0213 8.34492C18.0213 9.36764 18.3245 10.273 18.7312 10.8532C19.1387 11.4345 19.5676 11.6441 19.957 11.6441C20.3465 11.6441 20.7754 11.4345 21.1829 10.8532C21.5896 10.273 21.8928 9.36764 21.8928 8.34492C21.8928 7.82935 21.8309 7.49686 21.7433 7.27147C21.658 7.05211 21.5448 6.92512 21.4205 6.82469C21.1799 6.63042 20.7033 6.48612 19.957 6.48612ZM18.2318 6.50056C18.5843 6.21579 19.1796 6.06945 19.957 6.06945C20.7345 6.06945 21.3297 6.21579 21.6823 6.50056C21.8545 6.63965 22.0162 6.82363 22.1316 7.12044C22.2447 7.41122 22.3095 7.80012 22.3095 8.34492C22.3095 9.44294 21.9855 10.4341 21.5241 11.0924C21.0634 11.7496 20.5204 12.0608 19.957 12.0608C19.3937 12.0608 18.8507 11.7496 18.39 11.0924C17.9286 10.4341 17.6046 9.44294 17.6046 8.34492C17.6046 7.80012 17.6694 7.41121 17.7825 7.12044C17.8979 6.82363 18.0596 6.63965 18.2318 6.50056ZM16.7749 14.2396C17.0733 14.2171 17.37 14.3013 17.6122 14.4771C17.8544 14.6529 18.0264 14.909 18.0975 15.1997C18.1686 15.4905 18.1342 15.797 18.0005 16.0648C17.8671 16.3319 17.6435 16.5431 17.3694 16.661C15.0069 17.7361 14.2823 19.394 13.429 21.3466C13.3606 21.5031 13.2914 21.6615 13.2204 21.8217C12.745 22.8947 12.2046 24.0428 11.2549 25.0164C10.2981 25.9974 8.92707 26.7182 7.09751 26.9577L7.09644 26.9579C6.9314 26.9786 6.76389 26.9666 6.60348 26.9226C6.44306 26.8786 6.29289 26.8035 6.16152 26.7014C6.03016 26.5994 5.92017 26.4725 5.83786 26.3279C5.75554 26.1834 5.7025 26.0241 5.68176 25.859C5.66102 25.694 5.67299 25.5265 5.71699 25.3661C5.76099 25.2056 5.83615 25.0555 5.93819 24.9241C6.04023 24.7927 6.16714 24.6828 6.31168 24.6004C6.45603 24.5182 6.61513 24.4652 6.77993 24.4444C8.15371 24.2645 8.88035 23.8364 9.45026 23.2521C10.0275 22.6604 10.4464 21.8287 10.9043 20.7952C10.9486 20.6953 10.9933 20.5936 11.0387 20.4903C11.9279 18.4677 13.0866 15.8323 16.3288 14.3573C16.469 14.2911 16.6202 14.2511 16.7749 14.2396ZM17.3674 14.8143C17.2051 14.6964 17.0061 14.64 16.806 14.6551C16.702 14.6629 16.6001 14.6898 16.5058 14.7345L16.5043 14.7353L16.5028 14.736C13.4072 16.1436 12.3059 18.6459 11.414 20.6721C11.3707 20.7706 11.3278 20.868 11.2852 20.964C10.8286 21.9945 10.3842 22.8914 9.74854 23.543C9.10562 24.2022 8.28908 24.6671 6.83362 24.8576L6.83255 24.8578C6.7218 24.8717 6.61488 24.9073 6.51788 24.9625C6.42089 25.0177 6.33572 25.0915 6.26725 25.1797C6.19878 25.2679 6.14834 25.3686 6.11882 25.4763C6.08929 25.5839 6.08126 25.6963 6.09517 25.8071C6.10909 25.9178 6.14468 26.0248 6.19992 26.1217C6.25516 26.2187 6.32896 26.3039 6.41712 26.3724C6.50527 26.4409 6.60605 26.4913 6.71369 26.5208C6.82116 26.5503 6.93338 26.5583 7.04395 26.5445C8.7895 26.3159 10.0714 25.6331 10.9566 24.7255C11.8491 23.8105 12.3644 22.725 12.8395 21.6529C12.9113 21.4909 12.9816 21.3297 13.0515 21.1694C13.9012 19.2213 14.6852 17.4239 17.1989 16.2808L17.201 16.2799L17.2032 16.279C17.3876 16.2 17.5381 16.0581 17.6277 15.8786C17.7174 15.6991 17.7404 15.4936 17.6928 15.2987C17.6451 15.1038 17.5298 14.9322 17.3674 14.8143ZM22.9677 14.2394C23.1802 14.2261 23.3925 14.2666 23.5851 14.3573C26.8275 15.8322 27.9861 18.4677 28.8754 20.4903C28.9208 20.5936 28.9655 20.6953 29.0098 20.7952C29.4677 21.8287 29.8866 22.6604 30.4638 23.2521C31.0337 23.8364 31.7604 24.2645 33.1342 24.4444C33.299 24.4652 33.4581 24.5182 33.6024 24.6004C33.7469 24.6828 33.8738 24.7927 33.9759 24.9241C34.0779 25.0555 34.1531 25.2056 34.1971 25.3661C34.2411 25.5265 34.2531 25.694 34.2323 25.859C34.2116 26.0241 34.1585 26.1834 34.0762 26.3279C33.9939 26.4725 33.8839 26.5994 33.7526 26.7014C33.6212 26.8035 33.471 26.8786 33.3106 26.9226C33.1502 26.9666 32.9827 26.9786 32.8176 26.9579L32.8166 26.9577C30.987 26.7182 29.616 25.9974 28.6592 25.0164C27.7095 24.0428 27.1691 22.8947 26.6936 21.8217C26.6227 21.6615 26.5535 21.5031 26.485 21.3466C25.6317 19.394 24.9072 17.736 22.5445 16.661C22.2844 16.5484 22.0697 16.3517 21.9348 16.1024C21.7996 15.8525 21.7526 15.5643 21.8012 15.2844C21.8499 15.0044 21.9915 14.7491 22.2032 14.5595C22.4148 14.3699 22.6841 14.2571 22.9677 14.2394ZM23.4086 14.7347C23.2793 14.6736 23.1366 14.6463 22.9938 14.6553C22.8037 14.6671 22.6231 14.7427 22.4812 14.8698C22.3393 14.9969 22.2444 15.1681 22.2117 15.3558C22.1791 15.5434 22.2107 15.7366 22.3013 15.9042C22.3919 16.0717 22.5364 16.2038 22.7113 16.2792L22.7133 16.28L22.7152 16.2808C25.2288 17.4239 26.0128 19.2213 26.8626 21.1694C26.9325 21.3297 27.0028 21.4909 27.0746 21.6529C27.5496 22.725 28.065 23.8105 28.9574 24.7255C29.8427 25.6331 31.1246 26.3159 32.8701 26.5445C32.9807 26.5584 33.0929 26.5503 33.2004 26.5208C33.308 26.4913 33.4088 26.4408 33.497 26.3724C33.5851 26.3039 33.6589 26.2187 33.7142 26.1217C33.7694 26.0248 33.805 25.9178 33.8189 25.8071C33.8328 25.6963 33.8248 25.5839 33.7953 25.4763C33.7657 25.3686 33.7153 25.2679 33.6468 25.1797C33.5784 25.0915 33.4932 25.0177 33.3962 24.9625C33.2992 24.9073 33.1923 24.8717 33.0815 24.8578L33.0805 24.8576C31.625 24.6671 30.8085 24.2022 30.1655 23.543C29.5299 22.8914 29.0854 21.9945 28.6288 20.964C28.5863 20.868 28.5434 20.7706 28.5001 20.6721C27.6082 18.6459 26.5068 16.1436 23.4113 14.736L23.41 14.7353L23.4086 14.7347ZM15.7596 22.1676C15.9286 22.1515 16.0991 22.1696 16.2609 22.2208C16.4229 22.2721 16.573 22.3556 16.702 22.4662C16.8311 22.5768 16.9365 22.7123 17.012 22.8646C17.0871 23.0162 17.131 23.1813 17.1412 23.3501L17.1439 23.385C17.2116 24.2294 17.3023 25.3608 17.1396 26.5163C16.9742 27.6915 16.4829 29.0267 15.2433 29.8289L15.2419 29.8297C15.113 29.9117 14.9703 29.9697 14.8207 30.0008M15.7596 22.1676C15.5936 22.1825 15.4322 22.2301 15.2846 22.3077C15.1369 22.3853 15.006 22.4915 14.8995 22.62C14.793 22.7485 14.7131 22.8969 14.6642 23.0565C14.6155 23.2154 14.5987 23.3824 14.6147 23.5479C14.6834 24.4061 14.7491 25.3712 14.6379 26.1614C14.5404 26.8543 14.3278 27.2809 13.9854 27.567C13.6788 27.6205 13.3591 27.6627 13.0276 27.7064C11.8263 27.8649 10.47 28.0439 9.0245 28.8566C8.01022 29.4269 7.28104 30.1619 6.95166 31.0671C6.62107 31.9757 6.77259 32.956 7.20929 33.7061C8.0731 35.19 9.82591 36.0417 11.7325 36.0417C12.6523 36.0417 13.6236 35.8151 14.6121 35.4926C15.4163 35.2301 16.2432 34.9002 17.0702 34.5702C17.2427 34.5013 17.4152 34.4325 17.5875 34.3642C17.6253 34.368 17.6632 34.37 17.7012 34.3704L17.707 34.3704L17.7129 34.3701C19.1305 34.3026 20.9608 34.677 22.8121 35.1125C23.0268 35.163 23.2418 35.2144 23.4568 35.2658C25.0787 35.6536 26.7017 36.0417 28.1816 36.0417C30.0882 36.0417 31.841 35.19 32.7048 33.7061C33.1415 32.956 33.293 31.9757 32.9624 31.0671C32.633 30.1619 31.9039 29.4269 30.8896 28.8566C29.4441 28.0439 28.0877 27.8649 26.8865 27.7064C26.555 27.6627 26.2352 27.6205 25.9287 27.567C25.5863 27.2809 25.3737 26.8543 25.2762 26.1614C25.1649 25.3707 25.2308 24.4048 25.2995 23.5461L25.2996 23.5457C25.3125 23.3799 25.2927 23.213 25.2412 23.0548C25.1897 22.8966 25.1075 22.7501 24.9994 22.6236C24.8912 22.4971 24.7592 22.3932 24.6109 22.3177C24.4626 22.2423 24.3009 22.1968 24.135 22.1838C23.9691 22.1708 23.8023 22.1907 23.6441 22.2422C23.4858 22.2937 23.3393 22.3759 23.2128 22.484C23.0864 22.5922 22.9825 22.7241 22.907 22.8724C22.8315 23.0207 22.786 23.1824 22.7731 23.3483C22.7731 23.3483 22.7731 23.3483 22.7731 23.3483L22.7701 23.385C22.7025 24.2294 22.6118 25.3608 22.7745 26.5163C22.9399 27.6915 23.4312 29.0267 24.6708 29.8289L24.6722 29.8297C24.8011 29.9118 24.9438 29.9697 25.0934 30.0009C25.6954 30.1267 26.2582 30.2045 26.7779 30.2763C27.0609 30.3154 27.3311 30.3527 27.5879 30.3951C28.3273 30.5171 28.991 30.6845 29.6518 31.056C30.3119 31.4272 30.5283 31.7609 30.5917 31.9352C30.6271 32.0325 30.6351 32.0992 30.6271 32.1617C30.6187 32.2276 30.5901 32.3086 30.5195 32.4299C30.3915 32.6497 30.0903 32.9231 29.6652 33.1431C29.245 33.3605 28.7256 33.5139 28.1816 33.5139C27.0575 33.5139 25.3865 33.1205 23.5721 32.6933C23.512 32.6792 23.4517 32.665 23.3913 32.6508C23.3581 32.643 23.3242 32.6352 23.29 32.6275C23.4076 32.5648 23.5147 32.4838 23.6073 32.3873C23.7222 32.2675 23.8124 32.1262 23.8727 31.9715C23.9331 31.8169 23.9623 31.6518 23.9589 31.4858C23.9554 31.3198 23.9193 31.1562 23.8526 31.0041C23.7859 30.8521 23.6898 30.7147 23.57 30.5998C23.4502 30.4849 23.3089 30.3947 23.1542 30.3344C22.9997 30.2741 22.8348 30.2449 22.669 30.2483C21.7463 30.264 20.7701 30.5007 19.7761 30.83C18.984 31.0924 18.17 31.4174 17.3562 31.7423C17.1493 31.8249 16.9424 31.9075 16.7358 31.9891C15.7134 32.3929 14.6891 32.7757 13.8021 33.0573C12.9069 33.3415 12.1773 33.5139 11.7325 33.5139C11.1885 33.5139 10.6691 33.3605 10.2489 33.1431C9.82374 32.9231 9.52256 32.6497 9.39461 32.4299C9.324 32.3086 9.29533 32.2276 9.28694 32.1617C9.27898 32.0992 9.287 32.0325 9.32238 31.9352C9.3858 31.7609 9.6022 31.4272 10.2623 31.056C10.9231 30.6845 11.5868 30.5171 12.3262 30.3951C12.583 30.3527 12.8532 30.3154 13.1362 30.2763C13.6559 30.2045 14.2188 30.1267 14.8207 30.0008M22.7133 32.3594C22.8243 32.357 22.9338 32.3328 23.0355 32.2882C23.1374 32.2435 23.2295 32.1791 23.3066 32.0988C23.3836 32.0185 23.4441 31.9238 23.4845 31.8201C23.525 31.7164 23.5446 31.6058 23.5423 31.4945C23.54 31.3832 23.5158 31.2735 23.471 31.1716C23.4263 31.0697 23.3619 30.9776 23.2816 30.9005C23.2013 30.8235 23.1066 30.763 23.0029 30.7226C22.8992 30.6822 22.7885 30.6626 22.6773 30.6649L22.6764 30.6649C21.8153 30.6795 20.8854 30.9015 19.9072 31.2255C19.1281 31.4836 18.3291 31.8026 17.5166 32.127C17.3082 32.2101 17.0989 32.2937 16.8889 32.3766C15.8633 32.7817 14.8287 33.1686 13.9282 33.4545C13.036 33.7377 12.2496 33.9306 11.7325 33.9306C11.1123 33.9306 10.5277 33.7565 10.0574 33.5132C9.59219 33.2725 9.21651 32.9522 9.03452 32.6395C8.95016 32.4946 8.89192 32.3582 8.87361 32.2143C8.85486 32.067 8.88034 31.9315 8.93082 31.7928C9.03911 31.4951 9.34342 31.0946 10.0581 30.6928C10.7798 30.287 11.4979 30.1095 12.2583 29.984C12.5366 29.9381 12.8162 29.8996 13.1033 29.86C13.6121 29.7899 14.1445 29.7166 14.7356 29.593L14.7358 29.5929C14.8358 29.5721 14.9313 29.5334 15.0175 29.4786C16.1123 28.7698 16.5697 27.5757 16.727 26.4582C16.8832 25.3486 16.7957 24.2556 16.7276 23.4056L16.7255 23.379L16.7253 23.3767C16.7187 23.2629 16.6892 23.1517 16.6386 23.0496C16.588 22.9475 16.5174 22.8567 16.4309 22.7825C16.3444 22.7084 16.2438 22.6524 16.1352 22.618C16.0265 22.5837 15.9121 22.5715 15.7987 22.5824L15.7974 22.5825C15.6859 22.5925 15.5776 22.6244 15.4785 22.6765C15.3795 22.7285 15.2917 22.7997 15.2204 22.8859C15.149 22.972 15.0954 23.0715 15.0626 23.1784C15.0299 23.2854 15.0186 23.3978 15.0295 23.5092L15.0297 23.511L15.0299 23.5129C15.098 24.3639 15.1692 25.3757 15.0505 26.2194C14.9404 27.0018 14.6826 27.5515 14.2029 27.9268L14.1622 27.9586L14.1114 27.9678C13.759 28.0312 13.4023 28.0784 13.0397 28.1265C11.8501 28.2842 10.5972 28.4503 9.22871 29.2198C8.26982 29.7589 7.62795 30.427 7.34321 31.2096C7.05968 31.9888 7.18752 32.8405 7.56938 33.4965C8.34267 34.8249 9.93965 35.625 11.7325 35.625C12.5883 35.625 13.5113 35.4135 14.4828 35.0965C15.2731 34.8386 16.0843 34.5149 16.9106 34.1852C17.1008 34.1093 17.2917 34.0331 17.4834 33.9573L17.5351 33.9369L17.5901 33.9449C17.6263 33.9502 17.6627 33.9531 17.6993 33.9537C19.1835 33.8843 21.0671 34.274 22.9075 34.7069C23.1239 34.7578 23.3395 34.8093 23.554 34.8606C25.184 35.2499 26.7546 35.625 28.1816 35.625C29.9744 35.625 31.5714 34.8249 32.3447 33.4965C32.7266 32.8405 32.8544 31.9888 32.5709 31.2096C32.2861 30.427 31.6443 29.7589 30.6854 29.2198C29.3169 28.4503 28.064 28.2842 26.8744 28.1265C26.5118 28.0784 26.155 28.0312 25.8027 27.9678L25.7518 27.9586L25.7112 27.9268C25.2315 27.5515 24.9737 27.0018 24.8636 26.2194C24.7448 25.3758 24.8161 24.3641 24.8842 23.5132C24.8842 23.5131 24.8842 23.513 24.8842 23.5129L25.0919 23.5295L24.8842 23.5132C24.8842 23.5131 24.8842 23.5132 24.8842 23.5132C24.8929 23.4019 24.8795 23.2899 24.845 23.1838C24.8104 23.0776 24.7553 22.9793 24.6827 22.8944C24.6101 22.8095 24.5215 22.7397 24.422 22.6891C24.3224 22.6384 24.2139 22.6079 24.1026 22.5992C23.9912 22.5905 23.8793 22.6038 23.7731 22.6384C23.6669 22.673 23.5685 22.7281 23.4836 22.8007C23.3988 22.8733 23.329 22.9619 23.2784 23.0614C23.2277 23.1609 23.1972 23.2695 23.1885 23.3808L23.1865 23.4056C23.1184 24.2556 23.0309 25.3486 23.1871 26.4582C23.3444 27.5757 23.8018 28.7699 24.8966 29.4787C24.8963 29.4785 24.8961 29.4783 24.8959 29.4782L24.784 29.6539L24.8972 29.479C24.897 29.4789 24.8968 29.4788 24.8966 29.4787C24.9828 29.5334 25.0783 29.5721 25.1783 29.5929L25.1785 29.593C25.7695 29.7166 26.302 29.7899 26.8107 29.86C27.0979 29.8996 27.3775 29.9381 27.6557 29.984C28.4162 30.1095 29.1343 30.287 29.856 30.6928C30.5707 31.0947 30.875 31.4951 30.9833 31.7928C31.0337 31.9315 31.0592 32.067 31.0405 32.2143C31.0222 32.3582 30.9639 32.4946 30.8796 32.6395C30.6976 32.9522 30.3219 33.2725 29.8566 33.5132C29.3864 33.7565 28.8018 33.9306 28.1816 33.9306C27.0075 33.9306 25.2961 33.5275 23.516 33.1082C23.4428 33.091 23.3694 33.0737 23.2959 33.0564C23.1169 33.0143 22.9459 32.9793 22.7713 32.9436C22.6255 32.9138 22.4771 32.8834 22.3193 32.8479L22.3418 32.4376C22.3689 32.4346 22.4164 32.4219 22.4909 32.4019L22.4921 32.4015C22.5249 32.3927 22.5618 32.383 22.5965 32.3754C22.6286 32.3683 22.6715 32.3601 22.7133 32.3594Z" fill="black"/>
</svg>
